# AST/ASF file generated using VICON BodyLanguage
# -----------------------------------------------
:version 1.10
:name VICON
:units
  mass 1.0
  length 0.45
  angle deg
:documentation
   .ast/.asf automatically generated from VICON data using
   VICON BodyBuilder and BodyLanguage model FoxedUp or BRILLIANT.MOD
:root
   order TX TY TZ RX RY RZ
   axis XYZ
   position 0 0 0  
   orientation 0 -0 0 
:bonedata
  begin
     id 1 
     name lhipjoint
     direction 0.432694 -0.693742 0.575759 
     length 2.19277 
     axis 0 -0 0  XYZ
  end
  begin
     id 2 
     name lfemur
     direction 0.34202 -0.939693 0  
     length 6.69022  
     axis 0 -0 20  XYZ
    dof rx ry rz
    limits (-160.0 20.0)
           (-70.0 70.0)
           (-60.0 70.0)
  end
  begin
     id 3 
     name ltibia
     direction 0.34202 -0.939693 0   
     length 6.50337   
     axis 0 -0 20   XYZ
    dof rx
    limits (-10.0 170.0)
  end
  begin
     id 4 
     name lfoot
     direction 0.158999 -0.435969 0.885805   
     length 2.70564   
     axis -90 -1.13533e-015 20   XYZ
    dof rx rz
    limits (-45.0 90.0)
           (-70.0 20.0)
  end
  begin
     id 5 
     name ltoes
     direction -0.00592919 0.00964381 0.999936   
     length 1.29929   
     axis -90 -1.13533e-015 20   XYZ
    dof rx
    limits (-90.0 20.0)
  end
  begin
     id 6 
     name rhipjoint
     direction -0.414359 -0.700339 0.581234   
     length 2.17212  
     axis 0 -0 0  XYZ 
  end
  begin
     id 7 
     name rfemur
     direction -0.34202 -0.939693 0   
     length 7.17659   
     axis 0 -0 -20   XYZ
    dof rx ry rz
    limits (-160.0 20.0)
           (-70.0 70.0)
           (-70.0 60.0)
  end
  begin
     id 8 
     name rtibia
     direction -0.34202 -0.939693 0   
     length 6.36669   
     axis 0 -0 -20   XYZ
    dof rx
    limits (-10.0 170.0)
 end
 begin
     id 9 
     name rfoot
     direction -0.137064 -0.37658 0.916188   
     length 2.22351  
     axis -90 1.13533e-015 -20   XYZ
    dof rx rz
    limits (-45.0 90.0)
           (-20.0 70.0)
  end
  begin
     id 10 
     name rtoes
     direction -0.000784077 -0.00289101 0.999996   
     length 1.09522   
     axis -90 1.13533e-015 -20   XYZ
    dof rx
    limits (-90.0 20.0)
  end
  begin
     id 11 
     name lowerback
     direction -0.0176242 0.984912 -0.172157   
     length 1.65301   
     axis 0 -0 0   XYZ
    dof rx ry rz
    limits (-20.0 45.0)
           (-30.0 30.0)
           (-30.0 30.0)
  end
  begin
     id 12 
     name upperback
     direction -0.00218128 0.998776 -0.0494072   
     length 1.67776   
     axis 0 -0 0   XYZ
    dof rx ry rz
    limits (-20.0 45.0)
           (-30.0 30.0)
           (-30.0 30.0)
  end
  begin
     id 13 
     name thorax
     direction 0.00544186 0.999658 0.0255711   
     length 1.72293   
     axis 0 -0 0   XYZ
    dof rx ry rz
    limits (-20.0 45.0)
           (-30.0 30.0)
           (-30.0 30.0)
  end
  begin
     id 14 
     name lowerneck
     direction -0.105325 0.983841 0.144785   
     length 2.14226   
     axis 0 -0 0   XYZ
    dof rx ry rz
    limits (-20.0 45.0)
           (-30.0 30.0)
           (-30.0 30.0)
  end
  begin
     id 15 
     name upperneck
     direction 0.0547957 0.988053 -0.144041   
     length 2.17508   
     axis 0 -0 0   XYZ
    dof rx ry rz
    limits (-20.0 45.0)
           (-30.0 30.0)
           (-30.0 30.0)
  end
  begin
     id 16
     name head
     direction 0.0247488 0.997534 -0.0656813  
     length 2.20048  
     axis 0 -0 0   XYZ
    dof rx ry rz
    limits (-20.0 45.0)
           (-30.0 30.0)
           (-30.0 30.0)
  end
  begin
     id 17 
     name lclavicle
     direction 0.820559 0.567247 -0.0701026  
     length 4.09615  
     axis 0 -0 0   XYZ
    dof ry rz
    limits (-20.0 10.0)
           (0.0 20.0)
  end
  begin
     id 18 
     name lhumerus
     direction 0.999977 -0.0067566 -9.96392e-005   
     length 4.59333   
     axis -180 -30 -90   XYZ
    dof rx ry rz
    limits (-60.0 90.0)
           (-90.0 90.0)
           (-90.0 90.0)
  end
  begin
     id 19
     name lradius
     direction 1 -4.48982e-011 -2.53425e-027   
     length 2.81151   
     axis -180 -30 -90   XYZ
    dof rx
    limits (-10.0 170.0)
  end
  begin
     id 20
     name lwrist
     direction 1 -4.48939e-011 -7.39254e-028   
     length 1.40576   
     axis 2.56395e-016 90 90   XYZ
    dof ry
    limits (-180.0 0.0)
 end
  begin
     id 21 
     name lhand
     direction 1 -4.48939e-011 -1.47851e-027   
     length 0.895651   
     axis 9.43423e-016 90 90   XYZ
    dof rx rz
    limits (-90.0 90.0)
           (-45.0 45.0)
  end
  begin
     id 22 
     name lfingers
     direction 1 -4.48978e-011 -2.95702e-027   
     length 0.722097   
     axis 1.88685e-015 90 90   XYZ
    dof rx
    limits (0.0 90.0)
  end
  begin
     id 23
     name lthumb
     direction 0.707107 -6.34931e-011 0.707107   
     length 1.03679   
     axis -90 45 -9.86935e-015   XYZ
    dof rx rz
    limits (-45.0 45.0)
           (-45.0 45.0)
  end
  begin
     id 24 
     name rclavicle
     direction -0.831414 0.553102 -0.0531864   
     length 4.24872  
     axis 0 -0 0   XYZ 
    dof ry rz
    limits (-10.0 20.0)
           (-20.0 0.0)
  end
  begin
     id 25 
     name rhumerus
     direction -0.999916 -0.000939607 0.0129331  
     length 4.74834   
     axis -180 30 90   XYZ
    dof rx ry rz
    limits (-90.0 60.0)
           (-90.0 90.0)
           (-90.0 90.0)
  end
  begin
     id 26 
     name rradius
     direction -1 -4.48956e-011 -1.31752e-027   
     length 2.79907   
     axis -180 30 90   XYZ
    dof rx
    limits (-10.0 170.0)
  end
  begin
     id 27 
     name rwrist
     direction -1 -4.4897e-011 -7.39254e-028   
     length 1.39954   
     axis 2.56395e-016 -90 -90   XYZ
    dof ry
    limits (-180.0 0.0)
  end
  begin
     id 28
     name rhand
     direction -0.999997 -0.00250697 0.000800838   
     length 0.953304   
     axis 9.43423e-016 -90 -90   XYZ
    dof rx rz
    limits (-90.0 90.0)
           (-45.0 45.0)
  end
  begin
     id 29
     name rfingers
     direction -1 -4.48954e-011 -2.95702e-027   
     length 0.763342   
     axis 1.88685e-015 -90 -90   XYZ
    dof rx
    limits (0.0 90.0)
  end
  begin
     id 30
     name rthumb
     direction -0.709701 -0.00217037 0.7045   
     length 1.10115   
     axis -90 -45 9.86935e-015   XYZ
    dof rx rz
    limits (-45.0 45.0)
           (-45.0 45.0)
  end
:hierarchy
  begin
    root lhipjoint rhipjoint lowerback
    lhipjoint lfemur
    lfemur ltibia
    ltibia lfoot
    lfoot ltoes
    rhipjoint rfemur
    rfemur rtibia
    rtibia rfoot
    rfoot rtoes
    lowerback upperback
    upperback thorax
    thorax lowerneck lclavicle rclavicle
    lowerneck upperneck
    upperneck head
    lclavicle lhumerus
    lhumerus lradius
    lradius lwrist
    lwrist lhand lthumb
    lhand lfingers
    rclavicle rhumerus
    rhumerus rradius
    rradius rwrist
    rwrist rhand rthumb
    rhand rfingers
  end

#!OML:ASF G:\ViconDB\ViconDB\414\test\team2\shane.ASF
:FULLY-SPECIFIED
:DEGREES
117
root 4.04303 15.7946 -18.4895 -3.79419 7.85303 -6.4998
lowerback 16.9675 0.00366636 4.94861
upperback 2.61587 1.06737 2.04384
thorax -6.6561 0.431042 -0.861994
lowerneck -14.731 -4.27116 -8.65778
upperneck 13.3391 -5.21629 7.85158
head 6.93275 -2.28836 3.42186
rclavicle -2.92431e-015 -2.7395e-015
rhumerus 30.9632 0.52148 -26.0358
rradius 98.9009
rwrist 33.6336
rhand -42.7471 -16.0047
rfingers 7.12502
rthumb -15.6148 -45.3945
lclavicle -4.27387e-015 1.39149e-015
lhumerus 54.3447 6.99119 14.9393
lradius 67.7651
lwrist -5.56036
lhand -50.5585 15.1362
lfingers 7.12502
lthumb -23.125 43.7683
rfemur -4.64207 -20.111 12.7234
rtibia 46.3211
rfoot -31.8126 2.00823
rtoes -14.9672
lfemur -7.95706 13.9298 -0.468708
ltibia 46.7317
lfoot -41.1687 -12.8654
ltoes -11.4207
118
root 4.05364 15.7123 -18.487 -2.26482 8.3703 -6.06792
lowerback 16.2184 -0.0301903 4.42192
upperback 2.00383 0.897544 1.93624
thorax -6.91912 0.34715 -0.63689
lowerneck -14.7129 -4.14568 -8.40997
upperneck 13.0937 -5.08652 7.84632
head 6.83254 -2.21483 3.39264
rclavicle 1.29544e-014 2.65005e-014
rhumerus 27.0327 6.05118 -29.1672
rradius 100.454
rwrist 33.9755
rhand -42.1943 -15.2467
rfingers 7.12502
rthumb -15.0823 -44.6773
lclavicle -4.27387e-015 1.39149e-015
lhumerus 54.3447 6.99119 14.9393
lradius 67.7651
lwrist -5.56036
lhand -50.5585 15.1362
lfingers 7.12502
lthumb -23.125 43.7683
rfemur -7.76191 -21.7743 13.0974
rtibia 50.2172
rfoot -34.2819 -2.26873
rtoes -17.4222
lfemur -11.94 13.7018 -1.7668
ltibia 50.9316
lfoot -41.9358 -9.70043
ltoes -14.1607
119
root 4.02886 15.5664 -18.5248 -1.141 8.76053 -6.07913
lowerback 15.9325 0.106627 4.07962
upperback 1.72036 1.01359 1.9538
thorax -7.06789 0.407237 -0.447952
lowerneck -15.0312 -4.19476 -8.33984
upperneck 12.4565 -5.17099 8.22145
head 6.6988 -2.21581 3.48782
rclavicle -1.5909e-014 -4.95719e-015
rhumerus 22.145 11.3889 -33.4422
rradius 101.104
rwrist 34.2406
rhand -41.9149 -15.1035
rfingers 7.12502
rthumb -14.8132 -44.5541
lclavicle -4.27387e-015 1.39149e-015
lhumerus 54.3447 6.99119 14.9393
lradius 67.7651
lwrist -5.56036
lhand -50.5585 15.1362
lfingers 7.12502
lthumb -23.125 43.7683
rfemur -11.7034 -20.8424 14.1125
rtibia 55.0066
rfoot -33.8273 -4.30605
rtoes -19.1368
lfemur -15.9837 13.0306 -1.99426
ltibia 55.3504
lfoot -40.2633 -10.9322
ltoes -12.9267
120
root 3.99415 15.4332 -18.5865 -0.933501 8.49154 -6.35746
lowerback 16.7221 0.301287 4.1163
upperback 1.9188 1.30468 1.82738
thorax -7.2748 0.543365 -0.675002
lowerneck -16.2036 -4.22719 -7.78625
upperneck 12.0739 -5.25882 8.38134
head 6.77351 -2.19296 3.42556
rclavicle -7.33018e-015 -8.05078e-015
rhumerus 16.8064 16.2388 -39.1791
rradius 100.611
rwrist 34.5398
rhand -42.138 -15.1432
rfingers 7.12502
rthumb -15.0281 -44.5778
lclavicle -4.27387e-015 1.39149e-015
lhumerus 54.3447 6.99119 14.9393
lradius 67.7651
lwrist -5.56036
lhand -50.5585 15.1362
lfingers 7.12502
lthumb -23.125 43.7683
rfemur -15.1859 -19.3197 15.0854
rtibia 60.2608
rfoot -32.0155 -5.49536
rtoes -21.1977
lfemur -18.9065 13.5707 -1.66803
ltibia 59.7277
lfoot -39.5757 -10.4573
ltoes -16.0286
121
root 3.99018 15.3281 -18.6554 -1.21255 7.66823 -6.69472
lowerback 17.3699 0.516581 4.63927
upperback 2.78678 1.6841 1.79715
thorax -6.66125 0.736112 -1.09296
lowerneck -17.6444 -4.2469 -7.8719
upperneck 10.8809 -5.13591 8.66632
head 6.63292 -2.08779 3.52764
rclavicle 7.87684e-015 -4.62174e-014
rhumerus 11.6916 20.0996 -45.6768
rradius 99.0359
rwrist 34.0452
rhand -41.8545 -14.558
rfingers 7.12502
rthumb -14.755 -44.0128
lclavicle -4.27387e-015 1.39149e-015
lhumerus 54.3447 6.99119 14.9393
lradius 67.7651
lwrist -5.56036
lhand -50.5585 15.1362
lfingers 7.12502
lthumb -23.125 43.7683
rfemur -18.3439 -18.0513 15.7187
rtibia 65.4244
rfoot -29.4283 -5.94247
rtoes -22.4139
lfemur -20.5321 14.3161 -1.10404
ltibia 63.1647
lfoot -38.7914 -10.6976
ltoes -17.8491
122
root 3.99862 15.2354 -18.7115 -1.5879 6.53394 -6.78317
lowerback 18.2117 0.819356 4.91759
upperback 3.51039 2.14694 1.70213
thorax -6.29837 0.971797 -1.46668
lowerneck -18.2754 -4.1602 -7.6376
upperneck 9.08731 -4.89299 8.48514
head 6.13078 -1.97374 3.44458
rclavicle 6.08778e-015 2.5842e-015
rhumerus 6.13185 22.9821 -52.7604
rradius 96.4514
rwrist 32.0183
rhand -40.7931 -13.5526
rfingers 7.12502
rthumb -13.7323 -43.0795
lclavicle -4.27387e-015 1.39149e-015
lhumerus 54.3447 6.99119 14.9393
lradius 67.7651
lwrist -5.56036
lhand -50.5585 15.1362
lfingers 7.12502
lthumb -23.125 43.7683
rfemur -21.0864 -17.1493 15.881
rtibia 69.7059
rfoot -26.7303 -5.6148
rtoes -23.4707
lfemur -21.2413 15.0358 -0.673737
ltibia 65.6899
lfoot -38.7576 -10.8203
ltoes -19.1588
123
root 3.99086 15.1504 -18.7488 -1.71448 5.69433 -6.58873
lowerback 17.7161 0.934681 4.60523
upperback 4.70321 2.15471 1.67231
thorax -4.76347 1.03389 -1.29356
lowerneck -19.2496 -3.90348 -7.41026
upperneck 7.23186 -4.3701 8.06568
head 5.63666 -1.73454 3.31782
rclavicle -2.23136e-014 3.77691e-015
rhumerus 2.22215 24.2156 -59.2443
rradius 91.9596
rwrist 30.104
rhand -39.243 -12.878
rfingers 7.12502
rthumb -12.238 -42.4999
lclavicle -4.27387e-015 1.39149e-015
lhumerus 54.3447 6.99119 14.9393
lradius 67.7651
lwrist -5.56036
lhand -50.5585 15.1362
lfingers 7.12502
lthumb -23.125 43.7683
rfemur -23.3321 -16.7674 15.6656
rtibia 72.8758
rfoot -24.7082 -4.33588
rtoes -22.9613
lfemur -21.6058 15.5727 -0.393549
ltibia 67.2248
lfoot -38.9872 -11.5496
ltoes -20.0692
124
root 3.9761 15.0916 -18.7589 -2.0154 5.22448 -6.19662
lowerback 17.333 0.94414 4.05392
upperback 5.76899 1.99654 1.43864
thorax -3.4451 1.00054 -1.17071
lowerneck -20.0537 -3.5388 -6.91755
upperneck 5.89557 -3.85048 7.84308
head 5.28373 -1.47404 3.2163
rclavicle -2.15184e-014 -2.50469e-014
rhumerus -1.38878 24.1387 -66.0273
rradius 85.8899
rwrist 27.1266
rhand -38.0466 -12.1286
rfingers 7.12502
rthumb -11.0842 -41.8159
lclavicle -4.27387e-015 1.39149e-015
lhumerus 54.3447 6.99119 14.9393
lradius 67.7651
lwrist -5.56036
lhand -50.5585 15.1362
lfingers 7.12502
lthumb -23.125 43.7683
rfemur -24.3725 -16.6656 15.0282
rtibia 74.9021
rfoot -23.6629 -2.91829
rtoes -22.5934
lfemur -21.4083 15.951 -0.337186
ltibia 68.015
lfoot -39.3306 -12.2395
ltoes -20.2693
125
root 3.96562 15.0512 -18.7399 -2.75717 4.94674 -5.87173
lowerback 17.4309 0.81505 3.56046
upperback 6.69191 1.71713 1.34565
thorax -2.54222 0.88713 -0.924586
lowerneck -20.7297 -3.1552 -6.6601
upperneck 5.21178 -3.28024 7.45084
head 5.11503 -1.20763 3.1061
rclavicle -2.49972e-014 0
rhumerus -4.09847 22.4183 -71.8662
rradius 77.5516
rwrist 26.7282
rhand -37.1337 -10.9883
rfingers 7.12502
rthumb -10.2036 -40.7209
lclavicle -4.27387e-015 1.39149e-015
lhumerus 54.3447 6.99119 14.9393
lradius 67.7651
lwrist -5.56036
lhand -50.5585 15.1362
lfingers 7.12502
lthumb -23.125 43.7683
rfemur -23.9043 -16.6682 14.2216
rtibia 75.8916
rfoot -23.4249 -1.94546
rtoes -23.0799
lfemur -20.4085 16.2554 -0.175844
ltibia 68.3723
lfoot -39.8512 -12.6105
ltoes -20.5203
